<?xml version="1.0" encoding="UTF-8"?>
<!-- Generator: visioncortex VTracer 0.6.4 -->
<svg version="1.1" xmlns="http://www.w3.org/2000/svg" width="32" height="32">
<path d="M0 0 C10.56 0 21.12 0 32 0 C32 10.56 32 21.12 32 32 C21.44 32 10.88 32 0 32 C0 21.44 0 10.88 0 0 Z " fill="#333332" transform="translate(0,0)"/>
<path d="M0 0 C-3.75 2 -3.75 2 -6 2 C-5.34 4.31 -4.68 6.62 -4 9 C-3.11 8.65 -2.23 8.3 -1.31 7.94 C2.06 6.98 3.7 7.03 7 8 C7 8.66 7 9.32 7 10 C8.32 10 9.64 10 11 10 C11 8.35 11 6.7 11 5 C11.99 5 12.98 5 14 5 C14 6.65 14 8.3 14 10 C14.66 10 15.32 10 16 10 C16 7.03 16 4.06 16 1 C18 5 18 5 19 8 C19.33 8.66 19.66 9.32 20 10 C20.66 9.34 21.32 8.68 22 8 C24 11 24 11 24 22 C13.44 22 2.88 22 -8 22 C-8 14.74 -8 7.48 -8 0 C-4.71 -1.1 -3.29 -0.8 0 0 Z " fill="#272727" transform="translate(8,10)"/>
<path d="M0 0 C0.33 0 0.66 0 1 0 C1 1.65 1 3.3 1 5 C1.99 5 2.98 5 4 5 C4 4.01 4 3.02 4 2 C4.66 2 5.32 2 6 2 C6 1.34 6 0.68 6 0 C6.66 0 7.32 0 8 0 C8.66 0.66 9.32 1.32 10 2 C10.33 1.34 10.66 0.68 11 0 C11.66 0 12.32 0 13 0 C13 2.97 13 5.94 13 9 C12.34 9 11.68 9 11 9 C10.34 7.68 9.68 6.36 9 5 C8.67 6.32 8.34 7.64 8 9 C6.68 9 5.36 9 4 9 C4 8.34 4 7.68 4 7 C3.01 7 2.02 7 1 7 C0.67 7.66 0.34 8.32 0 9 C0 6.03 0 3.06 0 0 Z " fill="#66614B" transform="translate(11,11)"/>
<path d="M0 0 C2.31 0 4.62 0 7 0 C6.67 1.98 6.34 3.96 6 6 C4.68 6.33 3.36 6.66 2 7 C0 4 0 4 0 0 Z " fill="#D1C483" transform="translate(2,12)"/>
<path d="M0 0 C0.66 0 1.32 0 2 0 C4.09 4.43 4.09 4.43 3.62 7.31 C3.42 7.87 3.21 8.43 3 9 C1.33 9 -0.33 9 -2 9 C-1.34 6.03 -0.68 3.06 0 0 Z " fill="#6D6751" transform="translate(27,11)"/>
</svg>
